<mxfile host="app.diagrams.net" agent="Mozilla/5.0 (Macintosh; Intel Mac OS X 10_15_7) AppleWebKit/605.1.15 (KHTML, like Gecko) Version/18.3 Safari/605.1.15" version="26.0.16">
  <diagram name="Page-1" id="W2f_J5WgSorGnW319K0U">
    <mxGraphModel grid="1" page="1" gridSize="10" guides="1" tooltips="1" connect="1" arrows="1" fold="1" pageScale="1" pageWidth="850" pageHeight="1100" math="0" shadow="0">
      <root>
        <mxCell id="0" />
        <mxCell id="1" parent="0" />
        <mxCell id="MqIKwr3-grkIqsavMlgK-17" value="" style="whiteSpace=wrap;html=1;aspect=fixed;" vertex="1" parent="1">
          <mxGeometry x="190" y="32.5" width="822.5" height="822.5" as="geometry" />
        </mxCell>
        <mxCell id="4x7m2qN6wkbQQ71KeEYk-5" style="edgeStyle=orthogonalEdgeStyle;rounded=0;orthogonalLoop=1;jettySize=auto;html=1;entryX=0;entryY=0.5;entryDx=0;entryDy=0;" edge="1" parent="1" source="MqIKwr3-grkIqsavMlgK-1" target="MqIKwr3-grkIqsavMlgK-6">
          <mxGeometry relative="1" as="geometry" />
        </mxCell>
        <mxCell id="MqIKwr3-grkIqsavMlgK-1" value="Player" style="shape=umlActor;verticalLabelPosition=bottom;verticalAlign=top;html=1;outlineConnect=0;" vertex="1" parent="1">
          <mxGeometry x="140" y="220" width="30" height="60" as="geometry" />
        </mxCell>
        <mxCell id="MqIKwr3-grkIqsavMlgK-5" value="JoinGame" style="text;html=1;align=center;verticalAlign=middle;resizable=0;points=[];autosize=1;strokeColor=none;fillColor=none;" vertex="1" parent="1">
          <mxGeometry x="120" y="10" width="80" height="30" as="geometry" />
        </mxCell>
        <mxCell id="4x7m2qN6wkbQQ71KeEYk-6" style="rounded=0;orthogonalLoop=1;jettySize=auto;html=1;exitX=0.967;exitY=0.3;exitDx=0;exitDy=0;entryX=0;entryY=0.5;entryDx=0;entryDy=0;exitPerimeter=0;" edge="1" parent="1" source="4x7m2qN6wkbQQ71KeEYk-15" target="MqIKwr3-grkIqsavMlgK-8">
          <mxGeometry relative="1" as="geometry" />
        </mxCell>
        <mxCell id="4x7m2qN6wkbQQ71KeEYk-7" style="rounded=0;orthogonalLoop=1;jettySize=auto;html=1;exitX=1;exitY=0.5;exitDx=0;exitDy=0;entryX=0;entryY=0.5;entryDx=0;entryDy=0;" edge="1" parent="1" source="4x7m2qN6wkbQQ71KeEYk-15" target="MqIKwr3-grkIqsavMlgK-12">
          <mxGeometry relative="1" as="geometry" />
        </mxCell>
        <mxCell id="4x7m2qN6wkbQQ71KeEYk-16" style="edgeStyle=orthogonalEdgeStyle;rounded=0;orthogonalLoop=1;jettySize=auto;html=1;" edge="1" parent="1" source="MqIKwr3-grkIqsavMlgK-6" target="4x7m2qN6wkbQQ71KeEYk-15">
          <mxGeometry relative="1" as="geometry" />
        </mxCell>
        <mxCell id="MqIKwr3-grkIqsavMlgK-6" value="Attempt to join game" style="ellipse;whiteSpace=wrap;html=1;" vertex="1" parent="1">
          <mxGeometry x="230" y="290" width="110" height="60" as="geometry" />
        </mxCell>
        <mxCell id="MqIKwr3-grkIqsavMlgK-7" value="Choose between existing game or new game&amp;nbsp;" style="ellipse;whiteSpace=wrap;html=1;" vertex="1" parent="1">
          <mxGeometry x="240" y="600" width="150" height="60" as="geometry" />
        </mxCell>
        <mxCell id="4x7m2qN6wkbQQ71KeEYk-8" style="edgeStyle=orthogonalEdgeStyle;rounded=0;orthogonalLoop=1;jettySize=auto;html=1;exitX=1;exitY=0.5;exitDx=0;exitDy=0;entryX=0;entryY=0.5;entryDx=0;entryDy=0;" edge="1" parent="1" source="MqIKwr3-grkIqsavMlgK-8" target="MqIKwr3-grkIqsavMlgK-9">
          <mxGeometry relative="1" as="geometry" />
        </mxCell>
        <mxCell id="MqIKwr3-grkIqsavMlgK-8" value="New game" style="ellipse;whiteSpace=wrap;html=1;" vertex="1" parent="1">
          <mxGeometry x="430" y="150" width="90" height="40" as="geometry" />
        </mxCell>
        <mxCell id="MqIKwr3-grkIqsavMlgK-9" value="Create game lobby" style="ellipse;whiteSpace=wrap;html=1;" vertex="1" parent="1">
          <mxGeometry x="570" y="210" width="90" height="40" as="geometry" />
        </mxCell>
        <mxCell id="4x7m2qN6wkbQQ71KeEYk-4" style="edgeStyle=orthogonalEdgeStyle;rounded=0;orthogonalLoop=1;jettySize=auto;html=1;exitX=1;exitY=1;exitDx=0;exitDy=0;entryX=0.5;entryY=0;entryDx=0;entryDy=0;" edge="1" parent="1" source="MqIKwr3-grkIqsavMlgK-9" target="MqIKwr3-grkIqsavMlgK-20">
          <mxGeometry relative="1" as="geometry" />
        </mxCell>
        <mxCell id="4x7m2qN6wkbQQ71KeEYk-9" style="edgeStyle=orthogonalEdgeStyle;rounded=0;orthogonalLoop=1;jettySize=auto;html=1;entryX=1;entryY=0.5;entryDx=0;entryDy=0;" edge="1" parent="1" source="MqIKwr3-grkIqsavMlgK-10" target="MqIKwr3-grkIqsavMlgK-9">
          <mxGeometry relative="1" as="geometry" />
        </mxCell>
        <mxCell id="MqIKwr3-grkIqsavMlgK-10" value="player joins match" style="ellipse;whiteSpace=wrap;html=1;" vertex="1" parent="1">
          <mxGeometry x="720" y="150" width="90" height="40" as="geometry" />
        </mxCell>
        <mxCell id="4x7m2qN6wkbQQ71KeEYk-10" style="edgeStyle=orthogonalEdgeStyle;rounded=0;orthogonalLoop=1;jettySize=auto;html=1;exitX=0;exitY=1;exitDx=0;exitDy=0;entryX=0.5;entryY=0;entryDx=0;entryDy=0;" edge="1" parent="1" source="MqIKwr3-grkIqsavMlgK-11" target="MqIKwr3-grkIqsavMlgK-9">
          <mxGeometry relative="1" as="geometry" />
        </mxCell>
        <mxCell id="MqIKwr3-grkIqsavMlgK-11" value="other players join match" style="ellipse;whiteSpace=wrap;html=1;" vertex="1" parent="1">
          <mxGeometry x="630" y="70" width="90" height="40" as="geometry" />
        </mxCell>
        <mxCell id="4x7m2qN6wkbQQ71KeEYk-11" style="edgeStyle=orthogonalEdgeStyle;rounded=0;orthogonalLoop=1;jettySize=auto;html=1;exitX=1;exitY=0.5;exitDx=0;exitDy=0;" edge="1" parent="1" source="MqIKwr3-grkIqsavMlgK-12" target="MqIKwr3-grkIqsavMlgK-13">
          <mxGeometry relative="1" as="geometry" />
        </mxCell>
        <mxCell id="MqIKwr3-grkIqsavMlgK-12" value="existing game" style="ellipse;whiteSpace=wrap;html=1;" vertex="1" parent="1">
          <mxGeometry x="460" y="440" width="90" height="40" as="geometry" />
        </mxCell>
        <mxCell id="4x7m2qN6wkbQQ71KeEYk-12" style="edgeStyle=orthogonalEdgeStyle;rounded=0;orthogonalLoop=1;jettySize=auto;html=1;exitX=1;exitY=0.5;exitDx=0;exitDy=0;entryX=0;entryY=0.5;entryDx=0;entryDy=0;" edge="1" parent="1" source="MqIKwr3-grkIqsavMlgK-13" target="MqIKwr3-grkIqsavMlgK-14">
          <mxGeometry relative="1" as="geometry" />
        </mxCell>
        <mxCell id="MqIKwr3-grkIqsavMlgK-13" value="join search queue" style="ellipse;whiteSpace=wrap;html=1;" vertex="1" parent="1">
          <mxGeometry x="630" y="400" width="90" height="40" as="geometry" />
        </mxCell>
        <mxCell id="MqIKwr3-grkIqsavMlgK-14" value="find existing game lobby" style="ellipse;whiteSpace=wrap;html=1;" vertex="1" parent="1">
          <mxGeometry x="740" y="460" width="90" height="40" as="geometry" />
        </mxCell>
        <mxCell id="4x7m2qN6wkbQQ71KeEYk-3" style="edgeStyle=orthogonalEdgeStyle;rounded=0;orthogonalLoop=1;jettySize=auto;html=1;exitX=0.5;exitY=0;exitDx=0;exitDy=0;" edge="1" parent="1" source="MqIKwr3-grkIqsavMlgK-15" target="MqIKwr3-grkIqsavMlgK-20">
          <mxGeometry relative="1" as="geometry">
            <Array as="points" />
          </mxGeometry>
        </mxCell>
        <mxCell id="4x7m2qN6wkbQQ71KeEYk-14" style="edgeStyle=orthogonalEdgeStyle;rounded=0;orthogonalLoop=1;jettySize=auto;html=1;exitX=0;exitY=0.5;exitDx=0;exitDy=0;entryX=0.5;entryY=1;entryDx=0;entryDy=0;" edge="1" parent="1" source="MqIKwr3-grkIqsavMlgK-15" target="MqIKwr3-grkIqsavMlgK-14">
          <mxGeometry relative="1" as="geometry" />
        </mxCell>
        <mxCell id="MqIKwr3-grkIqsavMlgK-15" value="join game&amp;nbsp;" style="ellipse;whiteSpace=wrap;html=1;" vertex="1" parent="1">
          <mxGeometry x="870" y="540" width="90" height="40" as="geometry" />
        </mxCell>
        <mxCell id="MqIKwr3-grkIqsavMlgK-20" value="Update status" style="ellipse;whiteSpace=wrap;html=1;" vertex="1" parent="1">
          <mxGeometry x="860" y="320" width="110" height="60" as="geometry" />
        </mxCell>
        <mxCell id="4x7m2qN6wkbQQ71KeEYk-2" style="rounded=0;orthogonalLoop=1;jettySize=auto;html=1;exitX=0.5;exitY=0;exitDx=0;exitDy=0;entryX=0;entryY=1;entryDx=0;entryDy=0;dashed=1;" edge="1" parent="1" source="4x7m2qN6wkbQQ71KeEYk-1" target="MqIKwr3-grkIqsavMlgK-13">
          <mxGeometry relative="1" as="geometry" />
        </mxCell>
        <mxCell id="4x7m2qN6wkbQQ71KeEYk-1" value="Cancel join request" style="ellipse;whiteSpace=wrap;html=1;" vertex="1" parent="1">
          <mxGeometry x="540" y="550" width="90" height="40" as="geometry" />
        </mxCell>
        <mxCell id="4x7m2qN6wkbQQ71KeEYk-15" value="Verify online status" style="ellipse;whiteSpace=wrap;html=1;" vertex="1" parent="1">
          <mxGeometry x="360" y="300" width="90" height="40" as="geometry" />
        </mxCell>
      </root>
    </mxGraphModel>
  </diagram>
</mxfile>
